<svg viewBox="0 0 100 100" xmlns="http://www.w3.org/2000/svg">
  <defs>
    <linearGradient id="grad" x1="0%" y1="0%" x2="100%" y2="100%">
      <stop offset="0%" stop-color="#8052ff" />
      <stop offset="40%" stop-color="#C084FC" />
      <stop offset="70%" stop-color="#FFC107" />
      <stop offset="100%" stop-color="#FFD54F" />
    </linearGradient>
  </defs>

  <path
    d="M 32.68,45.00 L 41.34,50.00 M 41.34,50.00 L 41.34,60.00 M 32.68,65.00 L 41.34,60.00 M 32.68,65.00 L 24.02,60.00 M 24.02,60.00 L 24.02,50.00 M 24.02,50.00 L 32.68,45.00 M 67.32,45.00 L 75.98,50.00 M 75.98,50.00 L 75.98,60.00 M 75.98,60.00 L 67.32,65.00 M 58.66,60.00 L 67.32,65.00 M 58.66,60.00 L 58.66,50.00 M 58.66,50.00 L 67.32,45.00 M 41.34,60.00 L 50.00,65.00 M 50.00,75.00 L 50.00,65.00 M 50.00,75.00 L 41.34,80.00 M 41.34,80.00 L 32.68,75.00 M 32.68,75.00 L 32.68,65.00 M 67.32,65.00 L 67.32,75.00 M 67.32,75.00 L 58.66,80.00 M 58.66,80.00 L 50.00,75.00 M 50.00,65.00 L 58.66,60.00"
    stroke="url(#grad)"
    stroke-width="6"
    fill="none"
    stroke-linejoin="round"
    stroke-linecap="round"
  />

  <path d="M 43 38 C 43 28, 57 28, 57 38 C 57 48, 50 56, 50 56 C 50 56, 43 48, 43 38 Z" fill="url(#grad)" />
  <circle cx="50" cy="22" r="4.5" fill="url(#grad)" />

  <path d="M 41 38 C 25 30, 20 40, 25 50 C 35 50, 42 45, 41 38 Z" fill="url(#grad)" opacity="0.9" />
  <path d="M 59 38 C 75 30, 80 40, 75 50 C 65 50, 58 45, 59 38 Z" fill="url(#grad)" opacity="0.9" />

  <path d="M 47 17 Q 40 10 38 12 M 53 17 Q 60 10 62 12" stroke="url(#grad)" stroke-width="2.5" fill="none" stroke-linecap="round" />
  
  <line x1="42" y1="36" x2="58" y2="36" stroke="#050506" stroke-width="2" />
  <line x1="42.5" y1="41" x2="57.5" y2="41" stroke="#050506" stroke-width="2" />
  <line x1="45" y1="46" x2="55" y2="46" stroke="#050506" stroke-width="2" />
</svg>
