<svg viewBox="0 0 100 100" xmlns="http://www.w3.org/2000/svg">
  <defs>
    <linearGradient id="grad" x1="0%" y1="0%" x2="100%" y2="100%">
      <stop offset="0%" stop-color="#8052ff" />
      <stop offset="40%" stop-color="#C084FC" />
      <stop offset="70%" stop-color="#FFC107" />
      <stop offset="100%" stop-color="#FFD54F" />
    </linearGradient>
  </defs>

  <path
    d="M 60.39,61.00 L 60.39,49.00 M 50.00,67.00 L 60.39,61.00 M 39.61,61.00 L 50.00,67.00 M 39.61,49.00 L 39.61,61.00 M 29.22,67.00 L 39.61,61.00 M 29.22,67.00 L 18.82,61.00 M 18.82,61.00 L 18.82,49.00 M 81.18,49.00 L 81.18,61.00 M 81.18,61.00 L 70.78,67.00 M 60.39,61.00 L 70.78,67.00 M 50.00,79.00 L 50.00,67.00 M 50.00,79.00 L 39.61,85.00 M 39.61,85.00 L 29.22,79.00 M 29.22,79.00 L 29.22,67.00 M 70.78,67.00 L 70.78,79.00 M 70.78,79.00 L 60.39,85.00 M 60.39,85.00 L 50.00,79.00"
    stroke="url(#grad)"
    stroke-width="6"
    fill="none"
    stroke-linejoin="round"
    stroke-linecap="round"
  />

  <path d="M 42 38 C 42 25, 58 25, 58 38 C 58 52, 50 61, 50 61 C 50 61, 42 52, 42 38 Z" fill="url(#grad)" />
  <circle cx="50" cy="22" r="5" fill="url(#grad)" />

  <path d="M 40 38 C 25 25, 10 35, 15 50 C 25 50, 35 45, 40 38 Z" fill="url(#grad)" opacity="0.9" />
  <path d="M 60 38 C 75 25, 90 35, 85 50 C 75 50, 65 45, 60 38 Z" fill="url(#grad)" opacity="0.9" />

  <path d="M 46 18 Q 40 10 37 12 M 54 18 Q 60 10 63 12" stroke="url(#grad)" stroke-width="2.5" fill="none" stroke-linecap="round" />
  
  <line x1="41" y1="36" x2="59" y2="36" stroke="#050506" stroke-width="2.5" />
  <line x1="42.5" y1="42" x2="57.5" y2="42" stroke="#050506" stroke-width="2.5" />
  <line x1="45" y1="48" x2="55" y2="48" stroke="#050506" stroke-width="2.5" />
</svg>
